<mxfile host="65bd71144e" modified="2020-11-23T05:09:05.572Z" agent="5.0 (Macintosh; Intel Mac OS X 10_15_7) AppleWebKit/537.36 (KHTML, like Gecko) Code/1.51.1 Chrome/83.0.4103.122 Electron/9.3.3 Safari/537.36" etag="_Y8Of5PytmHAJYNOkhfO" version="13.6.5">
    <diagram id="U3TSOpRmrltZot66hm7w" name="Page-1">
        <mxGraphModel dx="3683" dy="1372" grid="0" gridSize="10" guides="1" tooltips="1" connect="1" arrows="1" fold="1" page="0" pageScale="1" pageWidth="827" pageHeight="1169" background="#FFFFFF" math="0" shadow="0">
            <root>
                <mxCell id="0"/>
                <mxCell id="1" parent="0"/>
                <mxCell id="24" value="" style="endArrow=block;dashed=1;endFill=0;endSize=12;html=1;fontSize=14;fontColor=#00232A;strokeColor=#00232A;strokeWidth=2;entryX=0.5;entryY=1;entryDx=0;entryDy=0;exitX=0.5;exitY=0;exitDx=0;exitDy=0;" parent="1" source="69" target="60" edge="1">
                    <mxGeometry width="160" relative="1" as="geometry">
                        <mxPoint x="-940" y="637" as="sourcePoint"/>
                        <mxPoint x="-960" y="557" as="targetPoint"/>
                        <Array as="points">
                            <mxPoint x="-840" y="567"/>
                            <mxPoint x="-710" y="567"/>
                        </Array>
                    </mxGeometry>
                </mxCell>
                <mxCell id="35" value="" style="endArrow=open;endFill=0;endSize=12;html=1;fontSize=14;fontColor=#391d00;strokeColor=#00232A;strokeWidth=2;exitX=0.325;exitY=1;exitDx=0;exitDy=0;exitPerimeter=0;entryX=0.281;entryY=-0.002;entryDx=0;entryDy=0;entryPerimeter=0;" parent="1" source="41" target="79" edge="1">
                    <mxGeometry width="160" relative="1" as="geometry">
                        <mxPoint x="-920" y="507" as="sourcePoint"/>
                        <mxPoint x="-980" y="477" as="targetPoint"/>
                    </mxGeometry>
                </mxCell>
                <mxCell id="36" value="&lt;div style=&quot;text-align: left&quot;&gt;&lt;font color=&quot;#00232a&quot;&gt;copy = CopyCommand(editor)&lt;/font&gt;&lt;/div&gt;&lt;div style=&quot;text-align: left&quot;&gt;&lt;font color=&quot;#00232a&quot;&gt;button.set_command(copy)&lt;/font&gt;&lt;/div&gt;" style="html=1;strokeWidth=2;fontSize=14;fontColor=#391d00;strokeColor=none;fillColor=#CAF0F8;spacing=4;" parent="1" vertex="1">
                    <mxGeometry x="-1110" y="316" width="220" height="50" as="geometry"/>
                </mxCell>
                <mxCell id="39" value="" style="endArrow=none;endFill=0;endSize=12;html=1;strokeColor=#00232A;fontSize=14;fontColor=#391d00;entryX=0.5;entryY=0;entryDx=0;entryDy=0;" parent="1" target="41" edge="1">
                    <mxGeometry width="160" relative="1" as="geometry">
                        <mxPoint x="-1050" y="365" as="sourcePoint"/>
                        <mxPoint x="-930" y="507" as="targetPoint"/>
                        <Array as="points"/>
                    </mxGeometry>
                </mxCell>
                <mxCell id="52" value="" style="endArrow=open;endFill=1;endSize=12;html=1;strokeColor=#00232A;fontSize=14;fontColor=#391d00;exitX=1;exitY=0.5;exitDx=0;exitDy=0;strokeWidth=1;entryX=0;entryY=0.25;entryDx=0;entryDy=0;" parent="1" source="36" target="10" edge="1">
                    <mxGeometry width="160" relative="1" as="geometry">
                        <mxPoint x="-910" y="338" as="sourcePoint"/>
                        <mxPoint x="-900" y="567" as="targetPoint"/>
                        <Array as="points"/>
                    </mxGeometry>
                </mxCell>
                <mxCell id="59" value="&lt;b&gt;&lt;font style=&quot;font-size: 20px&quot;&gt;1.&lt;/font&gt;&lt;/b&gt; The &lt;b&gt;Sender&lt;/b&gt; is responsible for initiating requests. This class &lt;br&gt;must have a field for storing a reference to a command object.&lt;br&gt;&lt;br&gt;The Sender triggers that command instead of sending the&amp;nbsp;request&lt;br&gt;directly to the Receiver.&lt;br&gt;&lt;br&gt;&lt;b&gt;Note:&lt;/b&gt; the Sender isn't responsible for creating the command&lt;br&gt;object.Usually, it gets a pre-created command from the Client via &lt;br&gt;the consructor." style="html=1;strokeWidth=2;fontSize=14;align=left;fillColor=#FDE4C9;labelBorderColor=none;fontColor=#391d00;spacing=16;spacingBottom=8;gradientColor=#ffffff;gradientDirection=east;strokeColor=none;" parent="1" vertex="1">
                    <mxGeometry x="-1070" y="127" width="440" height="170" as="geometry"/>
                </mxCell>
                <mxCell id="66" value="" style="endArrow=open;endFill=1;endSize=12;html=1;strokeColor=#00232A;fontSize=14;fontColor=#391d00;strokeWidth=2;entryX=0.5;entryY=0;entryDx=0;entryDy=0;exitX=0.5;exitY=1;exitDx=0;exitDy=0;exitPerimeter=0;" edge="1" parent="1" source="13" target="60">
                    <mxGeometry width="160" relative="1" as="geometry">
                        <mxPoint x="-660" y="427" as="sourcePoint"/>
                        <mxPoint x="-580" y="351" as="targetPoint"/>
                        <Array as="points"/>
                    </mxGeometry>
                </mxCell>
                <mxCell id="67" value="&lt;b&gt;&lt;font style=&quot;font-size: 20px&quot;&gt;2.&lt;/font&gt;&lt;/b&gt; The &lt;b&gt;Command&lt;/b&gt; interface usually&lt;br&gt;only declares a single method to&lt;br&gt;execute the command." style="html=1;strokeWidth=2;fontSize=14;align=left;fillColor=#FDE4C9;labelBorderColor=none;fontColor=#391d00;spacing=16;spacingBottom=8;gradientColor=#ffffff;gradientDirection=east;strokeColor=none;" vertex="1" parent="1">
                    <mxGeometry x="-610" y="458" width="260" height="80" as="geometry"/>
                </mxCell>
                <mxCell id="68" value="&lt;b&gt;&lt;font style=&quot;font-size: 20px&quot;&gt;3.&lt;/font&gt;&lt;/b&gt;&amp;nbsp;&lt;b&gt;Concrete Commands&lt;/b&gt; implement&lt;br&gt;various kind of requests.&lt;br&gt;&lt;br&gt;A Concrete Command isn't supposed&lt;br&gt;to perform the work of its own, but&lt;br&gt;rather to pass the call to one of the&lt;br&gt;business logic objects.&lt;br&gt;However, for the sake of simplifying&lt;br&gt;the code, these classes can be&lt;br&gt;merged.&lt;br&gt;&lt;br&gt;Parameters required to execute a&lt;br&gt;method on a receiving object can be&lt;br&gt;declared as fields in the Concrete&lt;br&gt;Command.&lt;br&gt;You can make Concrete Command&lt;br&gt;objects immutable by only allowing&lt;br&gt;the initialization of these fields via&lt;br&gt;the constructor." style="html=1;strokeWidth=2;fontSize=14;align=left;fillColor=#FDE4C9;labelBorderColor=none;fontColor=#391d00;spacing=16;spacingBottom=8;gradientColor=#ffffff;gradientDirection=east;strokeColor=none;" vertex="1" parent="1">
                    <mxGeometry x="-470" y="597" width="260" height="330" as="geometry"/>
                </mxCell>
                <mxCell id="77" value="" style="endArrow=block;dashed=1;endFill=0;endSize=12;html=1;fontSize=14;fontColor=#00232A;strokeColor=#00232A;strokeWidth=2;entryX=0.5;entryY=1;entryDx=0;entryDy=0;exitX=0.5;exitY=0;exitDx=0;exitDy=0;" edge="1" parent="1" source="73" target="60">
                    <mxGeometry width="160" relative="1" as="geometry">
                        <mxPoint x="-930" y="647" as="sourcePoint"/>
                        <mxPoint x="-950" y="567" as="targetPoint"/>
                        <Array as="points">
                            <mxPoint x="-580" y="567"/>
                            <mxPoint x="-710" y="567"/>
                        </Array>
                    </mxGeometry>
                </mxCell>
                <mxCell id="78" value="&lt;b&gt;&lt;font style=&quot;font-size: 20px&quot;&gt;4.&lt;/font&gt;&lt;/b&gt; The &lt;b&gt;Receiver&lt;/b&gt; class contains some business logic.&lt;br&gt;Almost any object may act as a Receiver.&lt;br&gt;&lt;br&gt;Most Commands only handle the details of how the&lt;br&gt;request is passed to the Receiver, while the Receiver&lt;br&gt;itself does the actual work." style="html=1;strokeWidth=2;fontSize=14;align=left;fillColor=#FDE4C9;labelBorderColor=none;fontColor=#391d00;spacing=16;spacingBottom=8;gradientColor=#ffffff;gradientDirection=east;strokeColor=none;" vertex="1" parent="1">
                    <mxGeometry x="-1110" y="787" width="360" height="130" as="geometry"/>
                </mxCell>
                <mxCell id="83" value="&lt;div style=&quot;&quot;&gt;&lt;font color=&quot;#00232a&quot;&gt;receiver.operation(params)&lt;/font&gt;&lt;/div&gt;" style="html=1;strokeWidth=2;fontSize=14;fontColor=#391d00;strokeColor=none;fillColor=#CAF0F8;spacing=8;align=left;spacingTop=0;" vertex="1" parent="1">
                    <mxGeometry x="-1070" y="737" width="240" height="35" as="geometry"/>
                </mxCell>
                <mxCell id="84" value="" style="endArrow=open;endFill=0;endSize=12;html=1;fontSize=14;fontColor=#391d00;strokeColor=#00232A;strokeWidth=1;exitX=0.25;exitY=0;exitDx=0;exitDy=0;entryX=0.716;entryY=1.008;entryDx=0;entryDy=0;entryPerimeter=0;" edge="1" parent="1" source="83" target="82">
                    <mxGeometry width="160" relative="1" as="geometry">
                        <mxPoint x="-910" y="517" as="sourcePoint"/>
                        <mxPoint x="-970" y="487" as="targetPoint"/>
                    </mxGeometry>
                </mxCell>
                <mxCell id="86" value="" style="endArrow=none;endFill=0;endSize=12;html=1;strokeColor=#00232A;fontSize=14;fontColor=#391d00;entryX=0.75;entryY=0;entryDx=0;entryDy=0;exitX=0.221;exitY=0.995;exitDx=0;exitDy=0;exitPerimeter=0;" edge="1" parent="1" source="72" target="83">
                    <mxGeometry width="160" relative="1" as="geometry">
                        <mxPoint x="-880" y="717" as="sourcePoint"/>
                        <mxPoint x="-1030" y="527" as="targetPoint"/>
                        <Array as="points"/>
                    </mxGeometry>
                </mxCell>
                <mxCell id="87" value="" style="endArrow=open;endFill=0;endSize=12;html=1;fontSize=14;fontColor=#391d00;strokeColor=#00232A;strokeWidth=2;entryX=0.25;entryY=0;entryDx=0;entryDy=0;exitX=0.664;exitY=1;exitDx=0;exitDy=0;exitPerimeter=0;" edge="1" parent="1" source="41" target="69">
                    <mxGeometry width="160" relative="1" as="geometry">
                        <mxPoint x="-1030" y="431" as="sourcePoint"/>
                        <mxPoint x="-1060.66" y="606.8200000000002" as="targetPoint"/>
                    </mxGeometry>
                </mxCell>
                <mxCell id="89" value="&lt;font style=&quot;font-weight: bold ; font-size: 20px&quot;&gt;5.&lt;/font&gt;&amp;nbsp;The &lt;b&gt;Client&lt;/b&gt; creates and&lt;br&gt;configures Concrete Command&lt;br&gt;objects.&lt;br&gt;&lt;br&gt;The Client must pass all of the&lt;br&gt;request parameters, including&lt;br&gt;a receiver instance, into the&lt;br&gt;command's constructor. After&lt;br&gt;that, the resulting command&lt;br&gt;may be associated with one or&lt;br&gt;multiple senders." style="html=1;strokeWidth=2;fontSize=14;align=left;fillColor=#FDE4C9;labelBorderColor=none;fontColor=#391d00;spacing=16;spacingBottom=8;gradientColor=#ffffff;gradientDirection=east;strokeColor=none;" vertex="1" parent="1">
                    <mxGeometry x="-1350" y="387" width="220" height="210" as="geometry"/>
                </mxCell>
                <mxCell id="10" value="Sender" style="swimlane;fontStyle=1;align=center;verticalAlign=top;childLayout=stackLayout;horizontal=1;startSize=30;horizontalStack=0;resizeParent=1;resizeParentMax=0;resizeLast=0;collapsible=1;marginBottom=0;fontColor=#00232A;fillColor=#6DC0D2;strokeWidth=2;fontSize=14;strokeColor=none;" parent="1" vertex="1">
                    <mxGeometry x="-790" y="316" width="160" height="100" as="geometry"/>
                </mxCell>
                <mxCell id="11" value="- command" style="text;strokeColor=none;align=left;verticalAlign=top;spacingLeft=4;spacingRight=4;overflow=hidden;rotatable=0;points=[[0,0.5],[1,0.5]];portConstraint=eastwest;fontColor=#00232A;fillColor=#CAF0F8;" parent="10" vertex="1">
                    <mxGeometry y="30" width="160" height="26" as="geometry"/>
                </mxCell>
                <mxCell id="12" value="" style="line;strokeWidth=1;fillColor=none;align=left;verticalAlign=middle;spacingTop=-1;spacingLeft=3;spacingRight=3;rotatable=0;labelPosition=right;points=[];portConstraint=eastwest;" parent="10" vertex="1">
                    <mxGeometry y="56" width="160" height="4" as="geometry"/>
                </mxCell>
                <mxCell id="13" value="+ set_command()&#10;+ execute_command()" style="text;strokeColor=none;align=left;verticalAlign=top;spacingLeft=4;spacingRight=4;overflow=hidden;rotatable=0;points=[[0,0.5],[1,0.5]];portConstraint=eastwest;fontColor=#00232A;fillColor=#CAF0F8;" parent="10" vertex="1">
                    <mxGeometry y="60" width="160" height="40" as="geometry"/>
                </mxCell>
                <mxCell id="60" value="&quot;interface&quot;&#10;Command" style="swimlane;fontStyle=1;align=center;verticalAlign=top;childLayout=stackLayout;horizontal=1;startSize=51;horizontalStack=0;resizeParent=1;resizeParentMax=0;resizeLast=0;collapsible=1;marginBottom=0;fontColor=#00232A;fillColor=#6DC0D2;strokeWidth=2;fontSize=14;strokeColor=none;" parent="1" vertex="1">
                    <mxGeometry x="-790" y="457" width="160" height="81" as="geometry"/>
                </mxCell>
                <mxCell id="62" value="" style="line;strokeWidth=1;fillColor=none;align=left;verticalAlign=middle;spacingTop=-1;spacingLeft=3;spacingRight=3;rotatable=0;labelPosition=right;points=[];portConstraint=eastwest;" parent="60" vertex="1">
                    <mxGeometry y="51" width="160" height="4" as="geometry"/>
                </mxCell>
                <mxCell id="63" value="+ execute()" style="text;strokeColor=none;align=left;verticalAlign=top;spacingLeft=4;spacingRight=4;overflow=hidden;rotatable=0;points=[[0,0.5],[1,0.5]];portConstraint=eastwest;fontColor=#00232A;fillColor=#CAF0F8;" parent="60" vertex="1">
                    <mxGeometry y="55" width="160" height="26" as="geometry"/>
                </mxCell>
                <mxCell id="69" value="ConcreteCommandA" style="swimlane;fontStyle=1;align=center;verticalAlign=top;childLayout=stackLayout;horizontal=1;startSize=30;horizontalStack=0;resizeParent=1;resizeParentMax=0;resizeLast=0;collapsible=1;marginBottom=0;fontColor=#00232A;fillColor=#6DC0D2;strokeWidth=2;fontSize=14;strokeColor=none;" vertex="1" parent="1">
                    <mxGeometry x="-930" y="597" width="180" height="114" as="geometry"/>
                </mxCell>
                <mxCell id="70" value="- receiver&#10;- params" style="text;strokeColor=none;align=left;verticalAlign=top;spacingLeft=4;spacingRight=4;overflow=hidden;rotatable=0;points=[[0,0.5],[1,0.5]];portConstraint=eastwest;fontColor=#00232A;fillColor=#CAF0F8;" vertex="1" parent="69">
                    <mxGeometry y="30" width="180" height="40" as="geometry"/>
                </mxCell>
                <mxCell id="71" value="" style="line;strokeWidth=1;fillColor=none;align=left;verticalAlign=middle;spacingTop=-1;spacingLeft=3;spacingRight=3;rotatable=0;labelPosition=right;points=[];portConstraint=eastwest;" vertex="1" parent="69">
                    <mxGeometry y="70" width="180" height="4" as="geometry"/>
                </mxCell>
                <mxCell id="72" value="+ CommandA(receiver, params)&#10;+ execute()" style="text;strokeColor=none;align=left;verticalAlign=top;spacingLeft=4;spacingRight=4;overflow=hidden;rotatable=0;points=[[0,0.5],[1,0.5]];portConstraint=eastwest;fontColor=#00232A;fillColor=#CAF0F8;" vertex="1" parent="69">
                    <mxGeometry y="74" width="180" height="40" as="geometry"/>
                </mxCell>
                <mxCell id="73" value="ConcreteCommandB" style="swimlane;fontStyle=1;align=center;verticalAlign=top;childLayout=stackLayout;horizontal=1;startSize=30;horizontalStack=0;resizeParent=1;resizeParentMax=0;resizeLast=0;collapsible=1;marginBottom=0;fontColor=#00232A;fillColor=#6DC0D2;strokeWidth=2;fontSize=14;strokeColor=none;" vertex="1" parent="1">
                    <mxGeometry x="-670" y="597" width="180" height="114" as="geometry"/>
                </mxCell>
                <mxCell id="74" value="- receiver&#10;- params" style="text;strokeColor=none;align=left;verticalAlign=top;spacingLeft=4;spacingRight=4;overflow=hidden;rotatable=0;points=[[0,0.5],[1,0.5]];portConstraint=eastwest;fontColor=#00232A;fillColor=#CAF0F8;" vertex="1" parent="73">
                    <mxGeometry y="30" width="180" height="40" as="geometry"/>
                </mxCell>
                <mxCell id="75" value="" style="line;strokeWidth=1;fillColor=none;align=left;verticalAlign=middle;spacingTop=-1;spacingLeft=3;spacingRight=3;rotatable=0;labelPosition=right;points=[];portConstraint=eastwest;" vertex="1" parent="73">
                    <mxGeometry y="70" width="180" height="4" as="geometry"/>
                </mxCell>
                <mxCell id="76" value="+ CommandB(receiver, params)&#10;+ execute()" style="text;strokeColor=none;align=left;verticalAlign=top;spacingLeft=4;spacingRight=4;overflow=hidden;rotatable=0;points=[[0,0.5],[1,0.5]];portConstraint=eastwest;fontColor=#00232A;fillColor=#CAF0F8;" vertex="1" parent="73">
                    <mxGeometry y="74" width="180" height="40" as="geometry"/>
                </mxCell>
                <mxCell id="79" value="Receiver" style="swimlane;fontStyle=1;align=center;verticalAlign=top;childLayout=stackLayout;horizontal=1;startSize=30;horizontalStack=0;resizeParent=1;resizeParentMax=0;resizeLast=0;collapsible=1;marginBottom=0;fontColor=#00232A;fillColor=#6DC0D2;strokeWidth=2;fontSize=14;strokeColor=none;" vertex="1" parent="1">
                    <mxGeometry x="-1110" y="597" width="140" height="90" as="geometry"/>
                </mxCell>
                <mxCell id="80" value="..." style="text;strokeColor=none;align=left;verticalAlign=top;spacingLeft=4;spacingRight=4;overflow=hidden;rotatable=0;points=[[0,0.5],[1,0.5]];portConstraint=eastwest;fontColor=#00232A;fillColor=#CAF0F8;" vertex="1" parent="79">
                    <mxGeometry y="30" width="140" height="30" as="geometry"/>
                </mxCell>
                <mxCell id="81" value="" style="line;strokeWidth=1;fillColor=none;align=left;verticalAlign=middle;spacingTop=-1;spacingLeft=3;spacingRight=3;rotatable=0;labelPosition=right;points=[];portConstraint=eastwest;" vertex="1" parent="79">
                    <mxGeometry y="60" width="140" height="4" as="geometry"/>
                </mxCell>
                <mxCell id="82" value="+ operation(params)" style="text;strokeColor=none;align=left;verticalAlign=top;spacingLeft=4;spacingRight=4;overflow=hidden;rotatable=0;points=[[0,0.5],[1,0.5]];portConstraint=eastwest;fontColor=#00232A;fillColor=#CAF0F8;" vertex="1" parent="79">
                    <mxGeometry y="64" width="140" height="26" as="geometry"/>
                </mxCell>
                <mxCell id="41" value="Client" style="swimlane;fontStyle=1;align=center;verticalAlign=top;childLayout=stackLayout;horizontal=1;startSize=30;horizontalStack=0;resizeParent=1;resizeParentMax=0;resizeLast=0;collapsible=1;marginBottom=0;fontColor=#00232A;fillColor=#6DC0D2;strokeWidth=2;fontSize=14;strokeColor=none;" parent="1" vertex="1">
                    <mxGeometry x="-1110" y="387" width="120" height="34" as="geometry"/>
                </mxCell>
                <mxCell id="43" value="" style="line;strokeWidth=1;fillColor=none;align=left;verticalAlign=middle;spacingTop=0;spacingLeft=3;spacingRight=3;rotatable=0;labelPosition=right;points=[];portConstraint=eastwest;" parent="41" vertex="1">
                    <mxGeometry y="30" width="120" height="4" as="geometry"/>
                </mxCell>
            </root>
        </mxGraphModel>
    </diagram>
</mxfile>